<?xml version="1.0" encoding="UTF-8"?>
<svg id="Ebene_1" data-name="Ebene 1" xmlns="http://www.w3.org/2000/svg" viewBox="0 0 215.43 28.35">
  <g id="Ebene_2" data-name="Ebene 2">
    <g id="Ebene_1-2" data-name="Ebene 1-2">
      <rect y="0" width="28.35" height="28.35" style="fill: #97bf0d;"/>
      <path d="m26,1.42l-8,7.73.33-6.52c2.3-.63,6.27-.63,7.67-1.21Z" style="fill: #fff;"/>
      <path d="m12.47,14.44l4.19-4,.29-7.49c-1.44.25-2.84.66-4.19,1.22,0,0-.25,10.31-.29,10.27Z" style="fill: #009ee0;"/>
      <path d="m7.1,19.47s3.9-3.59,3.9-3.64.16-11,.16-11c-1.3.62-2.52,1.39-3.65,2.29l-.41,12.35Z" style="fill: #f29400;"/>
      <path d="m2.57,23.83l3.17-3,.34-12.44c-2.58,2.49-6.68,8.54-3.51,15.44Z" style="fill: #ffed00;"/>
      <path d="m26.93,2.35l-7.74,8,6.52-.35c.67-2.28.67-6.26,1.22-7.65Z" style="fill: #006ab3;"/>
      <path d="m13.91,15.88l4-4.19,7.49-.29c-.25,1.44-.66,2.84-1.23,4.19,0,0-10.3.25-10.26.29Z" style="fill: #fff;"/>
      <path d="m8.88,21.25s3.59-3.93,3.64-3.89,11-.16,11-.16c-.62,1.3-1.38,2.52-2.28,3.64l-12.36.41Z" style="fill: #fff;"/>
      <path d="m4.52,25.77l3-3.17,12.48-.33c-2.53,2.58-8.58,6.68-15.48,3.5Z" style="fill: #fff;"/>
      <path d="m43.17,4.35c-.72-.87-1.79-1.36-2.91-1.35-2.71,0-4.5,2.18-4.5,4.94-.15,2.45,1.71,4.57,4.16,4.72.11,0,.23,0,.34,0,1.27.02,2.45-.61,3.15-1.67l1.38,1c-1.1,1.39-2.8,2.18-4.57,2.13-3.43-.01-6.21-2.8-6.22-6.23-.19-3.38,2.39-6.28,5.77-6.47.17-.01.35-.01.52,0,1.63-.06,3.2.63,4.25,1.88l-1.37,1.05Z" style="fill: #006ab3;"/>
      <path d="m46.78,1.73h7.79v1.54h-6.16v3.62h5.73v1.54h-5.73v3.89h6.46v1.54h-8.1V1.73Z" style="fill: #006ab3;"/>
      <path d="m57.2,1.73h4.25c3.09,0,3.87,1.87,3.87,3.39s-.78,3.4-3.87,3.4h-2.61v5.35h-1.64V1.73Zm1.64,5.35h2.16c1.3,0,2.59-.31,2.59-2s-1.3-2-2.59-2h-2.16v4Z" style="fill: #006ab3;"/>
      <path d="m67.31,1.73h1.69v10.6h5.54v1.54h-7.23V1.73Z" style="fill: #006ab3;"/>
      <path d="m81.66,1.73h1.48l5.17,12.14h-1.91l-1.21-3h-5.75l-1.19,3h-1.91l5.32-12.14Zm2.93,7.7l-2.25-5.58h0l-2.34,5.57h4.59Z" style="fill: #006ab3;"/>
      <path d="m91.09,11.33c.58.84,1.54,1.33,2.56,1.3,1.21.09,2.27-.79,2.4-2,0-2.79-6-1.06-6-5.79,0-1.42,1.19-3.39,4.09-3.39,1.31-.11,2.61.4,3.48,1.39l-1.27,1.16c-.51-.67-1.31-1.04-2.15-1-1.81,0-2.35,1.1-2.35,1.85,0,3.07,5.95,1.23,5.95,5.61,0,2.35-1.88,3.75-4.19,3.75-1.48.09-2.91-.54-3.85-1.68l1.33-1.2Z" style="fill: #006ab3;"/>
      <path d="m40.64,25.53c-.62.91-1.67,1.44-2.77,1.4-2.09.04-3.82-1.62-3.87-3.71,0-.1,0-.19,0-.29-.12-2.09,1.48-3.88,3.57-3.99.1,0,.19,0,.29,0,1-.04,1.96.4,2.57,1.2l-.57.49c-.46-.65-1.21-1.02-2-1-1.73-.02-3.15,1.36-3.17,3.09,0,.1,0,.19,0,.29-.14,1.72,1.15,3.23,2.87,3.37.1,0,.19.01.29,0,.89,0,1.71-.45,2.2-1.19l.57.34Z" style="fill: #006ab3;"/>
      <path d="m41.85,18.56h.63v8.18h-.63v-8.18Z" style="fill: #006ab3;"/>
      <path d="m48.39,25.33c0,.37.05,1.15.05,1.41h-.63v-.88h0c-.32.63-.97,1.02-1.67,1-1.52,0-1.85-1.06-1.85-2.15v-3h.63v2.94c0,.81.22,1.6,1.22,1.6s1.69-.67,1.69-2v-2.5h.63l-.07,3.58Z" style="fill: #006ab3;"/>
      <path d="m50.15,25.46c.28.52.82.83,1.41.82.55.07,1.05-.32,1.12-.87,0-.02,0-.03,0-.05,0-1.37-2.89-.41-2.89-2.32.04-.84.75-1.49,1.59-1.45.03,0,.05,0,.08,0,.71-.06,1.39.31,1.72.94l-.57.35c-.2-.45-.66-.73-1.15-.7-.45,0-1,.28-1,.8,0,1.35,2.89.3,2.89,2.33-.01.87-.73,1.57-1.6,1.56-.05,0-.11,0-.16-.01-.8.07-1.58-.32-2-1l.56-.41Z" style="fill: #006ab3;"/>
      <path d="m57,22.32h-1.38v3.26c-.04.35.21.66.55.7.04,0,.08,0,.12,0,.25,0,.49-.07.72-.17l.05.58c-.26.1-.54.16-.82.17-.63.05-1.19-.42-1.24-1.05,0-.08,0-.16,0-.23v-3.26h-1.07v-.58h1.07v-1.44h.63v1.44h1.37v.58Z" style="fill: #006ab3;"/>
      <path d="m62.44,25.79c-.46.71-1.27,1.11-2.11,1.07-1.34.03-2.45-1.04-2.48-2.38,0-.09,0-.17,0-.26-.09-1.35.92-2.52,2.27-2.61.05,0,.1,0,.16,0,1.24-.02,2.27.97,2.29,2.21,0,.04,0,.09,0,.13v.45h-4.08c-.02,1.02.8,1.86,1.82,1.88,0,0,.01,0,.02,0,.67.01,1.3-.32,1.66-.88l.44.4Zm-.48-2c-.02-.91-.78-1.64-1.69-1.62-.91.02-1.67.71-1.77,1.62h3.46Z" style="fill: #006ab3;"/>
      <path d="m64,23.14c0-.37-.05-1.15-.05-1.41h.63v.88c.28-.6.88-.99,1.55-1,.12,0,.25.02.37.05l-.07.64c-.08-.01-.16-.01-.24,0-.86,0-1.56.68-1.57,1.53,0,.06,0,.11,0,.17v2.73h-.63v-3.59Z" style="fill: #006ab3;"/>
      <path d="m72.54,21.61c1.38-.04,2.53,1.06,2.56,2.44,0,.06,0,.13,0,.19,0,1.41-1.15,2.56-2.56,2.56s-2.56-1.15-2.56-2.56c-.07-1.38.99-2.56,2.37-2.63.06,0,.13,0,.19,0Zm0,4.67c1.05.01,1.92-.83,1.93-1.89,0-.04,0-.07,0-.11,0-1.07-.86-1.93-1.93-1.93s-1.93.86-1.93,1.93c-.05,1.05.76,1.95,1.82,2,.04,0,.07,0,.11,0Z" style="fill: #006ab3;"/>
      <path d="m76.88,22.32h-1v-.58h1v-1.64c-.12-.8.44-1.55,1.24-1.66.07,0,.14-.01.21-.02.25-.01.5.03.73.13l-.13.56c-.18-.08-.37-.12-.57-.11-.58,0-.85.43-.85,1.33v1.4h1.14v.58h-1.14v4.41h-.63v-4.4Z" style="fill: #006ab3;"/>
      <path d="m82.56,19.07h4.56v.65h-3.86v2.73h3.62v.65h-3.62v3h4v.65h-4.7v-7.68Z" style="fill: #006ab3;"/>
      <path d="m89.88,24l-1.74-2.29h.81l1.35,1.89,1.34-1.89h.79l-1.72,2.29,2.09,2.71h-.8l-1.7-2.26-1.66,2.26h-.76l2-2.71Z" style="fill: #006ab3;"/>
      <path d="m97.78,26c-.43.55-1.09.88-1.79.87-1.38.04-2.53-1.06-2.56-2.44,0-.06,0-.13,0-.19-.07-1.38.99-2.56,2.37-2.63.07,0,.14,0,.2,0,.7,0,1.37.32,1.81.87l-.51.39c-.31-.41-.79-.65-1.3-.68-1.05-.01-1.92.83-1.93,1.89,0,.04,0,.07,0,.11-.05,1.05.76,1.95,1.82,2,.04,0,.07,0,.11,0,.52-.01,1-.27,1.31-.69l.47.5Z" style="fill: #006ab3;"/>
      <path d="m103.08,25.79c-.46.7-1.25,1.1-2.08,1.07-1.34.03-2.45-1.04-2.48-2.38,0-.09,0-.17,0-.26-.09-1.35.92-2.52,2.27-2.61.05,0,.1,0,.16,0,1.24-.02,2.27.97,2.29,2.21,0,.04,0,.09,0,.13v.45h-4.12c-.02,1.02.79,1.87,1.81,1.89.02,0,.04,0,.06,0,.66,0,1.27-.34,1.63-.89l.45.4Zm-.48-2c-.02-.91-.78-1.64-1.69-1.62-.91.02-1.67.71-1.77,1.62h3.46Z" style="fill: #006ab3;"/>
      <path d="m104.74,18.56h.63v8.18h-.63v-8.18Z" style="fill: #006ab3;"/>
      <path d="m107.27,18.56h.63v8.18h-.63v-8.18Z" style="fill: #006ab3;"/>
      <path d="m114,25.79c-.46.71-1.27,1.11-2.11,1.07-1.34.03-2.45-1.04-2.48-2.38,0-.09,0-.17,0-.26-.09-1.35.92-2.52,2.27-2.61.05,0,.1,0,.16,0,1.24-.02,2.27.97,2.29,2.21,0,.04,0,.09,0,.13v.45h-4.09c-.02,1.02.8,1.86,1.82,1.88,0,0,.01,0,.02,0,.66,0,1.27-.34,1.63-.89l.48.41Zm-.48-2c-.02-.91-.78-1.64-1.69-1.62-.91.02-1.67.71-1.77,1.62h3.46Z" style="fill: #006ab3;"/>
      <path d="m115.56,23.14c0-.37-.05-1.15-.05-1.41h.63v.88h0c.32-.62.96-1.01,1.66-1,1.52,0,1.85,1.06,1.85,2.15v3h-.63v-2.97c0-.81-.22-1.6-1.22-1.6s-1.69.67-1.69,2v2.5h-.63l.08-3.55Z" style="fill: #006ab3;"/>
      <path d="m125.5,26c-.43.55-1.09.88-1.79.87-1.38.04-2.53-1.06-2.56-2.44,0-.06,0-.13,0-.19-.07-1.38.99-2.56,2.37-2.63.06,0,.13,0,.19,0,.7,0,1.37.32,1.81.87l-.51.39c-.32-.4-.8-.65-1.31-.67-1.05-.01-1.92.83-1.93,1.89,0,.04,0,.07,0,.11-.05,1.05.76,1.95,1.82,2,.04,0,.07,0,.11,0,.52-.01,1-.27,1.31-.69l.49.49Z" style="fill: #006ab3;"/>
      <path d="m130.8,25.79c-.46.71-1.27,1.11-2.11,1.07-1.34.03-2.45-1.04-2.48-2.38,0-.09,0-.17,0-.26-.09-1.35.92-2.52,2.27-2.61.05,0,.1,0,.16,0,1.24-.02,2.27.97,2.29,2.21,0,.04,0,.09,0,.13v.45h-4.09c-.02,1.02.8,1.86,1.82,1.88,0,0,.01,0,.02,0,.66,0,1.27-.34,1.63-.89l.48.41Zm-.48-2c-.02-.91-.78-1.64-1.69-1.62-.91.02-1.67.71-1.77,1.62h3.46Z" style="fill: #006ab3;"/>
      <path d="m137.39,21.61c1.38-.04,2.53,1.06,2.56,2.44,0,.06,0,.13,0,.19,0,1.41-1.14,2.56-2.56,2.56s-2.56-1.14-2.56-2.56h0c-.07-1.39.99-2.56,2.37-2.63.06,0,.13,0,.19,0Zm0,4.67c1.05.01,1.92-.83,1.93-1.89,0-.04,0-.07,0-.11,0-1.07-.86-1.93-1.93-1.93s-1.93.86-1.93,1.93c-.05,1.05.76,1.95,1.82,2,.04,0,.07,0,.11,0Z" style="fill: #006ab3;"/>
      <path d="m141.36,23.14c0-.37-.05-1.15-.05-1.41h.63v.88h0c.31-.63.96-1.02,1.66-1,1.52,0,1.86,1.06,1.86,2.15v3h-.63v-2.97c0-.81-.22-1.6-1.22-1.6s-1.69.67-1.69,2v2.5h-.63l.07-3.55Z" style="fill: #006ab3;"/>
      <path d="m150.15,19.07h2.15c1.05,0,2.4.42,2.4,2,0,1.1-.88,2.01-1.99,2.01-.09,0-.17,0-.25-.01h-1.61v3.64h-.7v-7.64Zm.7,3.38h1.58c.79,0,1.58-.35,1.58-1.35s-.82-1.37-1.62-1.37h-1.54v2.72Z" style="fill: #006ab3;"/>
      <path d="m156.12,18.56h.63v8.18h-.63v-8.18Z" style="fill: #006ab3;"/>
      <path d="m162.33,24.64c-.02.7.01,1.4.09,2.1h-.59c-.04-.27-.06-.54-.06-.81h0c-.33.63-1,1-1.71.94-.84.11-1.6-.49-1.71-1.33,0-.05-.01-.1-.01-.15,0-1.53,1.74-1.68,2.7-1.68h.74v-.3c0-.87-.59-1.21-1.37-1.21-.55,0-1.08.19-1.49.56l-.37-.44c.51-.45,1.17-.7,1.85-.7,1.18,0,1.94.54,1.94,1.81v1.21Zm-1.28-.41c-1.05,0-2.11.27-2.11,1.13.04.55.51.97,1.06.93.02,0,.03,0,.05,0,.85.09,1.61-.51,1.7-1.36.01-.12.01-.24,0-.36v-.34h-.7Z" style="fill: #006ab3;"/>
      <path d="m164,23.14c0-.37-.05-1.15-.05-1.41h.63v.88h0c.32-.62.96-1.01,1.66-1,1.52,0,1.85,1.06,1.85,2.15v3h-.63v-2.97c0-.81-.22-1.6-1.22-1.6s-1.69.67-1.69,2v2.5h-.55v-3.55Z" style="fill: #006ab3;"/>
      <path d="m172.27,22.32h-1.39v3.26c-.04.35.21.66.55.7.04,0,.08,0,.12,0,.25,0,.49-.07.72-.17l.05.58c-.26.1-.54.16-.82.17-.63.06-1.19-.4-1.25-1.04,0-.08,0-.17,0-.25v-3.25h-1.05v-.58h1.05v-1.44h.63v1.44h1.39v.58Z" style="fill: #006ab3;"/>
      <path d="m176.52,25.32c.33.63,1,1.02,1.71,1,.84.08,1.59-.53,1.67-1.37,0-.04,0-.08,0-.13,0-2.14-3.85-.89-3.85-3.8.03-1.2,1.03-2.14,2.23-2.11.05,0,.11,0,.16.01.79-.02,1.54.36,2,1l-.6.44c-.32-.49-.87-.78-1.45-.76-.82-.09-1.55.5-1.64,1.32,0,.03,0,.05,0,.08,0,2.3,3.85.92,3.85,3.8,0,1.19-.97,2.16-2.16,2.16-.05,0-.1,0-.16,0-.95.05-1.87-.38-2.42-1.16l.66-.47Z" style="fill: #006ab3;"/>
      <path d="m186.08,26c-.43.55-1.09.88-1.79.87-1.38.04-2.53-1.06-2.56-2.44,0-.06,0-.13,0-.19-.07-1.38.99-2.56,2.37-2.63.06,0,.13,0,.19,0,.7,0,1.37.32,1.81.87l-.51.39c-.32-.4-.8-.65-1.31-.67-1.05-.01-1.92.83-1.93,1.89,0,.04,0,.07,0,.11-.05,1.05.76,1.95,1.82,2,.04,0,.07,0,.11,0,.52-.01,1-.27,1.31-.69l.49.49Z" style="fill: #006ab3;"/>
      <path d="m187.49,19.27c.27-.01.5.2.51.47.01.27-.2.5-.47.51-.27.01-.5-.2-.51-.47,0,0,0-.01,0-.02,0-.27.2-.48.47-.49,0,0,0,0,0,0Zm-.32,2.47h.63v5h-.63v-5Z" style="fill: #006ab3;"/>
      <path d="m193.9,25.79c-.46.71-1.27,1.11-2.11,1.07-1.34.03-2.45-1.04-2.48-2.38,0-.09,0-.17,0-.26-.09-1.35.92-2.52,2.27-2.61.05,0,.1,0,.16,0,1.24,0,2.25,1.01,2.25,2.25,0,.03,0,.06,0,.09v.45h-4c-.02,1.02.8,1.86,1.82,1.88,0,0,.01,0,.02,0,.66,0,1.27-.34,1.63-.89l.43.41Zm-.48-2c-.02-.91-.78-1.64-1.69-1.62-.9.04-1.64.74-1.73,1.64l3.42-.02Z" style="fill: #006ab3;"/>
      <path d="m195.46,23.14c0-.37-.05-1.15-.05-1.41h.59v.88h0c.32-.62.96-1.01,1.66-1,1.52,0,1.85,1.06,1.85,2.15v3h-.51v-2.97c0-.81-.22-1.6-1.22-1.6s-1.69.67-1.69,2v2.5h-.63v-3.55Z" style="fill: #006ab3;"/>
      <path d="m205.4,26c-.43.55-1.09.88-1.79.87-1.38.04-2.53-1.06-2.56-2.44,0-.06,0-.13,0-.19-.07-1.38.99-2.56,2.37-2.63.06,0,.13,0,.19,0,.7,0,1.37.32,1.81.87l-.51.39c-.32-.4-.8-.65-1.31-.67-1.05-.01-1.92.83-1.93,1.89,0,.04,0,.07,0,.11-.05,1.05.76,1.95,1.82,2,.04,0,.07,0,.11,0,.52-.01,1-.27,1.31-.69l.49.49Z" style="fill: #006ab3;"/>
      <path d="m210.7,25.79c-.46.71-1.27,1.11-2.11,1.07-1.34.03-2.45-1.04-2.48-2.38,0-.09,0-.17,0-.26-.09-1.35.92-2.52,2.27-2.61.05,0,.1,0,.16,0,1.24-.02,2.27.97,2.29,2.21,0,.04,0,.09,0,.13v.45h-4.09c-.02,1.02.8,1.86,1.82,1.88,0,0,.01,0,.02,0,.66,0,1.27-.34,1.63-.89l.48.41Zm-.48-2c-.02-.91-.78-1.64-1.69-1.62-.91.02-1.67.71-1.77,1.62h3.46Z" style="fill: #006ab3;"/>
      <path d="m212.27,25.46c.28.52.82.83,1.41.82.55.07,1.05-.32,1.12-.87,0-.02,0-.03,0-.05,0-1.37-2.89-.41-2.89-2.32.04-.84.75-1.49,1.59-1.45.03,0,.05,0,.08,0,.71-.06,1.39.31,1.72.94l-.57.35c-.2-.45-.66-.73-1.15-.7-.45,0-1,.28-1,.8,0,1.35,2.89.3,2.89,2.33-.01.87-.73,1.57-1.6,1.56-.05,0-.11,0-.16-.01-.8.07-1.58-.32-2-1l.56-.41Z" style="fill: #006ab3;"/>
    </g>
  </g>
</svg>